<!-- Copyright (c) Microsoft Corporation.
Licensed under the MIT License. -->

<svg width="27" height="27" viewBox="0 0 27 27" fill="none" xmlns="http://www.w3.org/2000/svg">
<path d="M13.3379 0.837891C14.5137 0.837891 15.6484 0.992839 16.7422 1.30273C17.8359 1.60352 18.8568 2.0319 19.8047 2.58789C20.7617 3.14388 21.6276 3.8138 22.4023 4.59766C23.1862 5.3724 23.8561 6.23828 24.4121 7.19531C24.9681 8.14323 25.3965 9.16406 25.6973 10.2578C26.0072 11.3516 26.1621 12.4863 26.1621 13.6621C26.1621 14.847 26.0072 15.9863 25.6973 17.0801C25.3965 18.1647 24.9681 19.1855 24.4121 20.1426C23.8561 21.0905 23.1862 21.9564 22.4023 22.7402C21.6276 23.515 20.7617 24.1849 19.8047 24.75C18.8568 25.306 17.8359 25.7389 16.7422 26.0488C15.6484 26.3496 14.5137 26.5 13.3379 26.5C12.153 26.5 11.0137 26.3496 9.91992 26.0488C8.82617 25.7389 7.80534 25.306 6.85742 24.75C5.90951 24.194 5.04362 23.5241 4.25977 22.7402C3.47591 21.9564 2.80599 21.0905 2.25 20.1426C1.69401 19.1947 1.26107 18.1738 0.951172 17.0801C0.650391 15.9863 0.5 14.847 0.5 13.6621C0.5 12.4863 0.650391 11.3516 0.951172 10.2578C1.26107 9.16406 1.69401 8.14323 2.25 7.19531C2.80599 6.23828 3.47591 5.3724 4.25977 4.59766C5.04362 3.8138 5.90951 3.14388 6.85742 2.58789C7.81445 2.0319 8.83984 1.60352 9.93359 1.30273C11.0273 0.992839 12.1621 0.837891 13.3379 0.837891ZM24.3027 13.6621C24.3027 12.6595 24.1706 11.6934 23.9062 10.7637C23.651 9.82487 23.2819 8.94987 22.7988 8.13867C22.3249 7.32747 21.7507 6.58919 21.0762 5.92383C20.4108 5.24935 19.6725 4.67513 18.8613 4.20117C18.0501 3.7181 17.1751 3.34896 16.2363 3.09375C15.3066 2.82943 14.3405 2.69727 13.3379 2.69727C12.3262 2.69727 11.3509 2.82943 10.4121 3.09375C9.48242 3.34896 8.61198 3.7181 7.80078 4.20117C6.98958 4.67513 6.2513 5.24479 5.58594 5.91016C4.92057 6.57552 4.34635 7.3138 3.86328 8.125C3.38932 8.9362 3.02018 9.8112 2.75586 10.75C2.50065 11.6797 2.37305 12.6504 2.37305 13.6621C2.37305 14.6738 2.50065 15.6491 2.75586 16.5879C3.02018 17.5176 3.38932 18.388 3.86328 19.1992C4.33724 20.0104 4.9069 20.7533 5.57227 21.4277C6.24674 22.0931 6.98958 22.6628 7.80078 23.1367C8.61198 23.6107 9.48242 23.9798 10.4121 24.2441C11.3509 24.4993 12.3262 24.627 13.3379 24.627C14.3496 24.627 15.3203 24.4993 16.25 24.2441C17.1888 23.9798 18.0638 23.6107 18.875 23.1367C19.6862 22.6536 20.4245 22.0794 21.0898 21.4141C21.7552 20.7487 22.3249 20.0104 22.7988 19.1992C23.2819 18.388 23.651 17.5176 23.9062 16.5879C24.1706 15.6491 24.3027 14.6738 24.3027 13.6621ZM17.1797 8.17969L18.8203 9.82031L14.9785 13.6621L18.8203 17.5039L17.1797 19.1582L13.3379 15.3164L9.49609 19.1582L7.8418 17.5039L11.6836 13.6621L7.8418 9.82031L9.49609 8.17969L13.3379 12.0215L17.1797 8.17969Z" fill="#D13438"/>
</svg>
