<!-- Copyright (c) Microsoft Corporation.
Licensed under the MIT License. -->

<svg width="30" height="30" viewBox="0 0 30 30" fill="none" xmlns="http://www.w3.org/2000/svg">
<path d="M14.6719 0.671875C16.0156 0.671875 17.3125 0.848958 18.5625 1.20312C19.8125 1.54688 20.9792 2.03646 22.0625 2.67188C23.1562 3.30729 24.1458 4.07292 25.0312 4.96875C25.9271 5.85417 26.6927 6.84375 27.3281 7.9375C27.9635 9.02083 28.4531 10.1875 28.7969 11.4375C29.151 12.6875 29.3281 13.9844 29.3281 15.3281C29.3281 16.6823 29.151 17.9844 28.7969 19.2344C28.4531 20.474 27.9635 21.6406 27.3281 22.7344C26.6927 23.8177 25.9271 24.8073 25.0312 25.7031C24.1458 26.5885 23.1562 27.3542 22.0625 28C20.9792 28.6354 19.8125 29.1302 18.5625 29.4844C17.3125 29.8281 16.0156 30 14.6719 30C13.3177 30 12.0156 29.8281 10.7656 29.4844C9.51562 29.1302 8.34896 28.6354 7.26562 28C6.18229 27.3646 5.19271 26.599 4.29688 25.7031C3.40104 24.8073 2.63542 23.8177 2 22.7344C1.36458 21.651 0.869792 20.4844 0.515625 19.2344C0.171875 17.9844 0 16.6823 0 15.3281C0 13.9844 0.171875 12.6875 0.515625 11.4375C0.869792 10.1875 1.36458 9.02083 2 7.9375C2.63542 6.84375 3.40104 5.85417 4.29688 4.96875C5.19271 4.07292 6.18229 3.30729 7.26562 2.67188C8.35938 2.03646 9.53125 1.54688 10.7812 1.20312C12.0312 0.848958 13.3281 0.671875 14.6719 0.671875ZM27.2031 15.3281C27.2031 14.1823 27.0521 13.0781 26.75 12.0156C26.4583 10.9427 26.0365 9.94271 25.4844 9.01562C24.9427 8.08854 24.2865 7.24479 23.5156 6.48438C22.7552 5.71354 21.9115 5.05729 20.9844 4.51562C20.0573 3.96354 19.0573 3.54167 17.9844 3.25C16.9219 2.94792 15.8177 2.79688 14.6719 2.79688C13.5156 2.79688 12.401 2.94792 11.3281 3.25C10.2656 3.54167 9.27083 3.96354 8.34375 4.51562C7.41667 5.05729 6.57292 5.70833 5.8125 6.46875C5.05208 7.22917 4.39583 8.07292 3.84375 9C3.30208 9.92708 2.88021 10.9271 2.57812 12C2.28646 13.0625 2.14062 14.1719 2.14062 15.3281C2.14062 16.4844 2.28646 17.599 2.57812 18.6719C2.88021 19.7344 3.30208 20.7292 3.84375 21.6562C4.38542 22.5833 5.03646 23.4323 5.79688 24.2031C6.56771 24.9635 7.41667 25.6146 8.34375 26.1562C9.27083 26.6979 10.2656 27.1198 11.3281 27.4219C12.401 27.7135 13.5156 27.8594 14.6719 27.8594C15.8281 27.8594 16.9375 27.7135 18 27.4219C19.0729 27.1198 20.0729 26.6979 21 26.1562C21.9271 25.6042 22.7708 24.9479 23.5312 24.1875C24.2917 23.4271 24.9427 22.5833 25.4844 21.6562C26.0365 20.7292 26.4583 19.7344 26.75 18.6719C27.0521 17.599 27.2031 16.4844 27.2031 15.3281ZM12 18.7812L20.3906 10.3906L22.2812 12.2812L12 22.5469L7.0625 17.6094L8.9375 15.7188L12 18.7812Z" fill="#218D51"/>
</svg>
